<svg xmlns="http://www.w3.org/2000/svg" xmlns:xlink="http://www.w3.org/1999/xlink" width="300" zoomAndPan="magnify" viewBox="0 0 224.87999 225" height="300" preserveAspectRatio="xMidYMid meet" version="1.0"><defs><g/><clipPath id="bfd70062e0"><path d="M 42 0.0585938 L 179 0.0585938 L 179 224.9375 L 42 224.9375 Z M 42 0.0585938 " clip-rule="nonzero"/></clipPath><clipPath id="fdc18e3fe4"><path d="M 20 0.0585938 L 123 0.0585938 L 123 130 L 20 130 Z M 20 0.0585938 " clip-rule="nonzero"/></clipPath><clipPath id="690c98faa5"><path d="M 1 0.0585938 L 100 0.0585938 L 100 128 L 1 128 Z M 1 0.0585938 " clip-rule="nonzero"/></clipPath><clipPath id="76535d5de2"><rect x="0" width="103" y="0" height="130"/></clipPath><clipPath id="b598cba03c"><path d="M 0.9375 111 L 47 111 L 47 224.9375 L 0.9375 224.9375 Z M 0.9375 111 " clip-rule="nonzero"/></clipPath><clipPath id="91606a0996"><rect x="0" width="47" y="0" height="114"/></clipPath><clipPath id="be60ff0776"><path d="M 54 115 L 136.226562 115 L 136.226562 219 L 54 219 Z M 54 115 " clip-rule="nonzero"/></clipPath><clipPath id="92597fef1f"><rect x="0" width="83" y="0" height="104"/></clipPath><clipPath id="b0dc5ae121"><rect x="0" width="137" y="0" height="225"/></clipPath></defs><g clip-path="url(#bfd70062e0)"><g transform="matrix(1, 0, 0, 1, 42, -0.000000000000003234)"><g clip-path="url(#b0dc5ae121)"><g clip-path="url(#fdc18e3fe4)"><g transform="matrix(1, 0, 0, 1, 20, -0.000000000000003234)"><g clip-path="url(#76535d5de2)"><g clip-path="url(#690c98faa5)"><g fill="#e5e0d5" fill-opacity="1"><g transform="translate(0.235359, 76.517841)"><g><path d="M 99 -68.25 C 99.164062 -65.664062 99.035156 -62.25 98.609375 -58 C 98.191406 -53.757812 97.570312 -48.945312 96.75 -43.5625 C 95.9375 -38.1875 94.988281 -32.507812 93.90625 -26.53125 C 92.820312 -20.550781 91.726562 -14.53125 90.625 -8.46875 C 89.882812 -4.25 89.117188 0.0625 88.328125 4.46875 C 87.535156 8.875 86.8125 13.09375 86.15625 17.125 C 85.5 21.15625 84.984375 24.710938 84.609375 27.796875 C 84.242188 30.878906 84.085938 33.1875 84.140625 34.71875 C 84.347656 34.34375 84.582031 33.945312 84.84375 33.53125 C 85.0625 33.15625 85.367188 32.914062 85.765625 32.8125 C 86.160156 32.707031 86.539062 32.757812 86.90625 32.96875 C 87.269531 33.1875 87.503906 33.492188 87.609375 33.890625 C 87.722656 34.285156 87.671875 34.664062 87.453125 35.03125 C 86.828125 36.082031 86.144531 37.039062 85.40625 37.90625 C 84.664062 38.78125 83.796875 39.0625 82.796875 38.75 C 82.210938 38.488281 81.773438 37.921875 81.484375 37.046875 C 81.203125 36.179688 81.097656 34.757812 81.171875 32.78125 C 81.253906 30.800781 81.53125 28.054688 82 24.546875 C 82.476562 21.046875 83.175781 16.550781 84.09375 11.0625 C 85.019531 5.582031 86.222656 -1.082031 87.703125 -8.9375 C 88.703125 -14.738281 89.726562 -20.585938 90.78125 -26.484375 C 91.832031 -32.390625 92.78125 -38.03125 93.625 -43.40625 C 94.46875 -48.789062 95.113281 -53.617188 95.5625 -57.890625 C 96.007812 -62.160156 96.15625 -65.53125 96 -68 C 95.894531 -69.53125 95.679688 -70.648438 95.359375 -71.359375 C 95.046875 -72.078125 94.734375 -72.460938 94.421875 -72.515625 C 94.421875 -72.515625 94.394531 -72.515625 94.34375 -72.515625 C 93.8125 -72.515625 92.882812 -71.945312 91.5625 -70.8125 C 90.25 -69.675781 88.601562 -67.660156 86.625 -64.765625 C 84.65625 -61.867188 82.320312 -57.753906 79.625 -52.421875 C 76.882812 -46.941406 73.484375 -39.128906 69.421875 -28.984375 C 65.367188 -18.835938 61.050781 -5.800781 56.46875 10.125 C 56.195312 11.070312 55.585938 11.441406 54.640625 11.234375 C 53.691406 11.015625 53.296875 10.429688 53.453125 9.484375 C 57.148438 -12.234375 59.128906 -28.546875 59.390625 -39.453125 C 59.492188 -42.828125 59.4375 -45.476562 59.21875 -47.40625 C 59.007812 -49.332031 58.75 -50.726562 58.4375 -51.59375 C 58.125 -52.46875 57.847656 -53.019531 57.609375 -53.25 C 57.367188 -53.488281 57.222656 -53.632812 57.171875 -53.6875 C 57.117188 -53.6875 56.867188 -53.609375 56.421875 -53.453125 C 55.972656 -53.296875 55.273438 -52.769531 54.328125 -51.875 C 53.378906 -50.976562 52.148438 -49.421875 50.640625 -47.203125 C 49.140625 -44.992188 47.332031 -41.859375 45.21875 -37.796875 C 43.113281 -33.734375 40.640625 -28.460938 37.796875 -21.984375 C 34.898438 -15.285156 31.988281 -8.046875 29.0625 -0.265625 C 26.132812 7.503906 23.328125 15.472656 20.640625 23.640625 C 17.953125 31.816406 15.5 39.832031 13.28125 47.6875 C 13.28125 47.6875 13.28125 47.710938 13.28125 47.765625 C 12.914062 48.710938 12.535156 49.554688 12.140625 50.296875 C 11.742188 51.035156 11.226562 51.40625 10.59375 51.40625 C 10.4375 51.40625 10.253906 51.378906 10.046875 51.328125 C 9.304688 51.054688 8.921875 50.484375 8.890625 49.609375 C 8.867188 48.742188 8.988281 47.390625 9.25 45.546875 C 9.625 43.066406 10.257812 39.507812 11.15625 34.875 C 12.726562 26.914062 15.046875 16.003906 18.109375 2.140625 C 19.484375 -4.242188 20.867188 -10.53125 22.265625 -16.71875 C 23.660156 -22.914062 24.960938 -28.660156 26.171875 -33.953125 C 27.390625 -39.253906 28.445312 -43.800781 29.34375 -47.59375 C 30.238281 -51.394531 30.867188 -54.0625 31.234375 -55.59375 C 32.078125 -59.226562 32.507812 -61.976562 32.53125 -63.84375 C 32.5625 -65.71875 32.40625 -67.023438 32.0625 -67.765625 C 31.71875 -68.503906 31.441406 -68.953125 31.234375 -69.109375 C 30.648438 -69.484375 29.765625 -69.429688 28.578125 -68.953125 C 27.398438 -68.484375 26.046875 -67.664062 24.515625 -66.5 C 22.460938 -64.914062 20.351562 -62.859375 18.1875 -60.328125 C 16.03125 -57.804688 13.988281 -55.039062 12.0625 -52.03125 C 10.132812 -49.03125 8.5 -45.988281 7.15625 -42.90625 C 5.8125 -39.820312 4.890625 -36.851562 4.390625 -34 C 3.890625 -31.15625 4.007812 -28.648438 4.75 -26.484375 C 6.269531 -21.953125 10.644531 -19.632812 17.875 -19.53125 C 18.289062 -19.53125 18.644531 -19.367188 18.9375 -19.046875 C 19.226562 -18.734375 19.375 -18.367188 19.375 -17.953125 C 19.375 -17.523438 19.210938 -17.164062 18.890625 -16.875 C 18.578125 -16.59375 18.238281 -16.453125 17.875 -16.453125 C 17.875 -16.453125 17.859375 -16.453125 17.828125 -16.453125 C 17.804688 -16.453125 17.796875 -16.453125 17.796875 -16.453125 C 15.835938 -16.503906 13.773438 -16.78125 11.609375 -17.28125 C 9.453125 -17.78125 7.488281 -18.675781 5.71875 -19.96875 C 3.957031 -21.257812 2.65625 -23.117188 1.8125 -25.546875 C 1.1875 -27.492188 0.9375 -29.546875 1.0625 -31.703125 C 1.195312 -33.867188 1.578125 -36.019531 2.203125 -38.15625 C 2.835938 -40.289062 3.5625 -42.289062 4.375 -44.15625 C 5.195312 -46.03125 5.976562 -47.65625 6.71875 -49.03125 C 8.882812 -52.976562 11.390625 -56.742188 14.234375 -60.328125 C 17.078125 -63.921875 19.898438 -66.796875 22.703125 -68.953125 C 25.390625 -71.015625 27.546875 -72.109375 29.171875 -72.234375 C 30.804688 -72.367188 32.046875 -72.171875 32.890625 -71.640625 C 35.953125 -69.691406 36.375 -64.101562 34.15625 -54.875 C 33.582031 -52.457031 32.832031 -49.253906 31.90625 -45.265625 C 30.988281 -41.285156 29.960938 -36.789062 28.828125 -31.78125 C 27.691406 -26.78125 26.488281 -21.5 25.21875 -15.9375 C 23.957031 -10.375 22.707031 -4.785156 21.46875 0.828125 C 20.226562 6.441406 19.039062 11.867188 17.90625 17.109375 C 16.78125 22.359375 15.796875 27.144531 14.953125 31.46875 C 16.953125 25.09375 19.054688 18.710938 21.265625 12.328125 C 23.484375 5.953125 25.75 -0.238281 28.0625 -6.25 C 30.382812 -12.257812 32.707031 -17.925781 35.03125 -23.25 C 38.09375 -30.257812 40.78125 -35.9375 43.09375 -40.28125 C 45.414062 -44.632812 47.421875 -47.96875 49.109375 -50.28125 C 50.796875 -52.601562 52.21875 -54.210938 53.375 -55.109375 C 54.539062 -56.015625 55.476562 -56.519531 56.1875 -56.625 C 56.894531 -56.726562 57.460938 -56.726562 57.890625 -56.625 C 58.628906 -56.457031 59.335938 -55.976562 60.015625 -55.1875 C 60.703125 -54.40625 61.269531 -53.078125 61.71875 -51.203125 C 62.164062 -49.328125 62.425781 -46.6875 62.5 -43.28125 C 62.582031 -39.882812 62.398438 -35.523438 61.953125 -30.203125 C 61.503906 -24.878906 60.753906 -18.34375 59.703125 -10.59375 C 62.921875 -20.34375 66.175781 -29.238281 69.46875 -37.28125 C 72.757812 -45.320312 75.960938 -52.226562 79.078125 -58 C 82.191406 -63.769531 85.09375 -68.1875 87.78125 -71.25 C 90.46875 -74.3125 92.8125 -75.734375 94.8125 -75.515625 C 97.289062 -75.253906 98.6875 -72.832031 99 -68.25 Z M 99 -68.25 "/></g></g></g></g></g></g></g><g clip-path="url(#b598cba03c)"><g transform="matrix(1, 0, 0, 1, 0.000000000000007105, 111)"><g clip-path="url(#91606a0996)"><g fill="#e5e0d5" fill-opacity="1"><g transform="translate(4.4584, 79.977053)"><g><path d="M 38.015625 -14.546875 C 38.660156 -13.429688 38.484375 -11.976562 37.484375 -10.1875 C 36.484375 -8.394531 34.75 -6.441406 32.28125 -4.328125 C 30.75 -3.023438 28.867188 -1.726562 26.640625 -0.4375 C 27.222656 0.851562 27.867188 2.097656 28.578125 3.296875 C 29.285156 4.503906 30.078125 5.640625 30.953125 6.703125 C 31.253906 7.117188 31.390625 7.5625 31.359375 8.03125 C 31.328125 8.5 31.101562 8.878906 30.6875 9.171875 C 30.394531 9.410156 30.046875 9.53125 29.640625 9.53125 C 29.109375 9.53125 28.664062 9.320312 28.3125 8.90625 C 26.550781 6.613281 24.992188 4 23.640625 1.0625 C 20.929688 2.351562 18.132812 3.394531 15.25 4.1875 C 12.375 4.976562 9.757812 5.34375 7.40625 5.28125 C 5.050781 5.226562 3.316406 4.613281 2.203125 3.4375 C -0.796875 0.144531 2.054688 -5.734375 10.765625 -14.203125 C 12.347656 -15.734375 13.800781 -17.21875 15.125 -18.65625 C 16.445312 -20.09375 17.664062 -21.457031 18.78125 -22.75 C 18.726562 -26.925781 19.023438 -30.925781 19.671875 -34.75 C 20.316406 -38.394531 21.445312 -41.171875 23.0625 -43.078125 C 24.675781 -44.992188 26.25 -46.070312 27.78125 -46.3125 C 29.71875 -46.601562 31.128906 -45.867188 32.015625 -44.109375 C 32.898438 -42.335938 32.679688 -39.554688 31.359375 -35.765625 C 30.035156 -31.972656 26.992188 -27.222656 22.234375 -21.515625 C 22.285156 -18.691406 22.5625 -15.738281 23.0625 -12.65625 C 23.5625 -9.570312 24.34375 -6.554688 25.40625 -3.609375 C 27.164062 -4.671875 28.722656 -5.757812 30.078125 -6.875 C 31.660156 -8.289062 32.804688 -9.46875 33.515625 -10.40625 C 34.222656 -11.34375 34.664062 -12.050781 34.84375 -12.53125 C 34.78125 -12.46875 34.660156 -12.4375 34.484375 -12.4375 C 34.078125 -12.257812 33.664062 -12.273438 33.25 -12.484375 C 32.84375 -12.691406 32.550781 -13.03125 32.375 -13.5 C 32.195312 -13.90625 32.207031 -14.3125 32.40625 -14.71875 C 32.613281 -15.132812 32.953125 -15.429688 33.421875 -15.609375 C 34.953125 -16.140625 36.054688 -16.179688 36.734375 -15.734375 C 37.410156 -15.296875 37.835938 -14.898438 38.015625 -14.546875 Z M 23.015625 -34.140625 C 22.835938 -33.140625 22.691406 -32.050781 22.578125 -30.875 C 22.460938 -29.695312 22.375 -28.429688 22.3125 -27.078125 C 24.601562 -30.140625 26.25 -32.726562 27.25 -34.84375 C 28.25 -36.957031 28.835938 -38.660156 29.015625 -39.953125 C 29.191406 -41.242188 29.164062 -42.128906 28.9375 -42.609375 C 28.8125 -42.835938 28.660156 -42.953125 28.484375 -42.953125 C 28.429688 -42.953125 28.375 -42.953125 28.3125 -42.953125 C 27.488281 -42.835938 26.519531 -42.046875 25.40625 -40.578125 C 24.289062 -39.109375 23.492188 -36.960938 23.015625 -34.140625 Z M 4.765625 1.140625 C 5.347656 1.785156 6.566406 2.066406 8.421875 1.984375 C 10.273438 1.898438 12.453125 1.503906 14.953125 0.796875 C 17.453125 0.0859375 19.9375 -0.851562 22.40625 -2.03125 C 21.46875 -4.5625 20.71875 -7.160156 20.15625 -9.828125 C 19.59375 -12.503906 19.222656 -15.195312 19.046875 -17.90625 C 17.222656 -15.90625 15.253906 -13.847656 13.140625 -11.734375 C 10.316406 -9.023438 8.257812 -6.773438 6.96875 -4.984375 C 5.675781 -3.191406 4.910156 -1.796875 4.671875 -0.796875 C 4.441406 0.203125 4.472656 0.847656 4.765625 1.140625 Z M 4.765625 1.140625 "/></g></g></g></g></g></g><g clip-path="url(#be60ff0776)"><g transform="matrix(1, 0, 0, 1, 54, 115)"><g clip-path="url(#92597fef1f)"><g fill="#e5e0d5" fill-opacity="1"><g transform="translate(1.135971, 61.658929)"><g><path d="M 78.5625 -54.15625 C 78.6875 -52.101562 78.582031 -49.390625 78.25 -46.015625 C 77.914062 -42.648438 77.421875 -38.832031 76.765625 -34.5625 C 76.117188 -30.300781 75.367188 -25.796875 74.515625 -21.046875 C 73.660156 -16.304688 72.789062 -11.53125 71.90625 -6.71875 C 71.320312 -3.363281 70.71875 0.0546875 70.09375 3.546875 C 69.46875 7.035156 68.890625 10.378906 68.359375 13.578125 C 67.835938 16.785156 67.429688 19.613281 67.140625 22.0625 C 66.847656 24.507812 66.722656 26.335938 66.765625 27.546875 C 66.929688 27.253906 67.117188 26.941406 67.328125 26.609375 C 67.492188 26.316406 67.734375 26.128906 68.046875 26.046875 C 68.359375 25.960938 68.664062 26.003906 68.96875 26.171875 C 69.257812 26.335938 69.445312 26.578125 69.53125 26.890625 C 69.613281 27.203125 69.570312 27.503906 69.40625 27.796875 C 68.90625 28.628906 68.359375 29.390625 67.765625 30.078125 C 67.179688 30.773438 66.492188 31 65.703125 30.75 C 65.242188 30.539062 64.894531 30.085938 64.65625 29.390625 C 64.425781 28.703125 64.34375 27.570312 64.40625 26 C 64.46875 24.4375 64.6875 22.265625 65.0625 19.484375 C 65.445312 16.703125 66.003906 13.132812 66.734375 8.78125 C 67.460938 4.4375 68.414062 -0.851562 69.59375 -7.09375 C 70.382812 -11.695312 71.195312 -16.335938 72.03125 -21.015625 C 72.875 -25.703125 73.628906 -30.175781 74.296875 -34.4375 C 74.960938 -38.707031 75.472656 -42.535156 75.828125 -45.921875 C 76.179688 -49.316406 76.296875 -52 76.171875 -53.96875 C 76.085938 -55.175781 75.921875 -56.0625 75.671875 -56.625 C 75.421875 -57.195312 75.171875 -57.503906 74.921875 -57.546875 C 74.921875 -57.546875 74.898438 -57.546875 74.859375 -57.546875 C 74.441406 -57.546875 73.707031 -57.09375 72.65625 -56.1875 C 71.613281 -55.289062 70.304688 -53.691406 68.734375 -51.390625 C 67.171875 -49.085938 65.320312 -45.828125 63.1875 -41.609375 C 61.007812 -37.253906 58.3125 -31.050781 55.09375 -23 C 51.875 -14.945312 48.441406 -4.601562 44.796875 8.03125 C 44.585938 8.78125 44.109375 9.070312 43.359375 8.90625 C 42.609375 8.738281 42.296875 8.28125 42.421875 7.53125 C 45.347656 -9.707031 46.914062 -22.65625 47.125 -31.3125 C 47.207031 -33.988281 47.164062 -36.085938 47 -37.609375 C 46.832031 -39.140625 46.625 -40.25 46.375 -40.9375 C 46.125 -41.632812 45.90625 -42.078125 45.71875 -42.265625 C 45.53125 -42.453125 45.414062 -42.566406 45.375 -42.609375 C 45.332031 -42.609375 45.128906 -42.546875 44.765625 -42.421875 C 44.410156 -42.296875 43.859375 -41.875 43.109375 -41.15625 C 42.359375 -40.445312 41.382812 -39.210938 40.1875 -37.453125 C 39 -35.703125 37.566406 -33.210938 35.890625 -29.984375 C 34.222656 -26.765625 32.257812 -22.582031 30 -17.4375 C 27.695312 -12.125 25.382812 -6.382812 23.0625 -0.21875 C 20.738281 5.945312 18.507812 12.269531 16.375 18.75 C 14.238281 25.238281 12.296875 31.601562 10.546875 37.84375 C 10.546875 37.84375 10.546875 37.863281 10.546875 37.90625 C 10.253906 38.65625 9.945312 39.320312 9.625 39.90625 C 9.3125 40.488281 8.90625 40.78125 8.40625 40.78125 C 8.28125 40.78125 8.132812 40.757812 7.96875 40.71875 C 7.382812 40.507812 7.082031 40.0625 7.0625 39.375 C 7.039062 38.6875 7.132812 37.609375 7.34375 36.140625 C 7.632812 34.171875 8.132812 31.347656 8.84375 27.671875 C 10.101562 21.359375 11.945312 12.695312 14.375 1.6875 C 15.457031 -3.375 16.550781 -8.359375 17.65625 -13.265625 C 18.769531 -18.179688 19.804688 -22.738281 20.765625 -26.9375 C 21.734375 -31.144531 22.570312 -34.753906 23.28125 -37.765625 C 23.988281 -40.785156 24.488281 -42.898438 24.78125 -44.109375 C 25.457031 -46.992188 25.804688 -49.175781 25.828125 -50.65625 C 25.847656 -52.144531 25.71875 -53.179688 25.4375 -53.765625 C 25.164062 -54.359375 24.945312 -54.71875 24.78125 -54.84375 C 24.320312 -55.132812 23.617188 -55.09375 22.671875 -54.71875 C 21.734375 -54.34375 20.660156 -53.691406 19.453125 -52.765625 C 17.816406 -51.515625 16.140625 -49.882812 14.421875 -47.875 C 12.710938 -45.863281 11.09375 -43.664062 9.5625 -41.28125 C 8.039062 -38.90625 6.742188 -36.492188 5.671875 -34.046875 C 4.609375 -31.597656 3.878906 -29.242188 3.484375 -26.984375 C 3.085938 -24.722656 3.179688 -22.734375 3.765625 -21.015625 C 4.972656 -17.421875 8.445312 -15.582031 14.1875 -15.5 C 14.519531 -15.5 14.800781 -15.375 15.03125 -15.125 C 15.257812 -14.875 15.375 -14.582031 15.375 -14.25 C 15.375 -13.914062 15.25 -13.628906 15 -13.390625 C 14.75 -13.160156 14.476562 -13.046875 14.1875 -13.046875 C 14.1875 -13.046875 14.175781 -13.046875 14.15625 -13.046875 C 14.132812 -13.046875 14.125 -13.046875 14.125 -13.046875 C 12.570312 -13.085938 10.9375 -13.304688 9.21875 -13.703125 C 7.507812 -14.109375 5.953125 -14.820312 4.546875 -15.84375 C 3.148438 -16.863281 2.113281 -18.335938 1.4375 -20.265625 C 0.9375 -21.816406 0.738281 -23.445312 0.84375 -25.15625 C 0.945312 -26.875 1.25 -28.578125 1.75 -30.265625 C 2.257812 -31.960938 2.835938 -33.554688 3.484375 -35.046875 C 4.128906 -36.535156 4.742188 -37.820312 5.328125 -38.90625 C 7.046875 -42.039062 9.035156 -45.03125 11.296875 -47.875 C 13.554688 -50.71875 15.796875 -53 18.015625 -54.71875 C 20.140625 -56.351562 21.847656 -57.222656 23.140625 -57.328125 C 24.441406 -57.429688 25.429688 -57.273438 26.109375 -56.859375 C 28.535156 -55.304688 28.867188 -50.867188 27.109375 -43.546875 C 26.648438 -41.617188 26.050781 -39.078125 25.3125 -35.921875 C 24.582031 -32.765625 23.765625 -29.195312 22.859375 -25.21875 C 21.960938 -21.25 21.015625 -17.054688 20.015625 -12.640625 C 19.015625 -8.234375 18.019531 -3.800781 17.03125 0.65625 C 16.050781 5.113281 15.109375 9.421875 14.203125 13.578125 C 13.304688 17.742188 12.523438 21.539062 11.859375 24.96875 C 13.453125 19.90625 15.125 14.84375 16.875 9.78125 C 18.632812 4.726562 20.429688 -0.179688 22.265625 -4.953125 C 24.109375 -9.722656 25.953125 -14.222656 27.796875 -18.453125 C 30.222656 -24.015625 32.351562 -28.519531 34.1875 -31.96875 C 36.03125 -35.414062 37.617188 -38.0625 38.953125 -39.90625 C 40.296875 -41.75 41.425781 -43.023438 42.34375 -43.734375 C 43.269531 -44.441406 44.015625 -44.835938 44.578125 -44.921875 C 45.148438 -45.003906 45.601562 -45.003906 45.9375 -44.921875 C 46.519531 -44.796875 47.082031 -44.421875 47.625 -43.796875 C 48.164062 -43.171875 48.613281 -42.113281 48.96875 -40.625 C 49.332031 -39.144531 49.546875 -37.054688 49.609375 -34.359375 C 49.671875 -31.660156 49.519531 -28.195312 49.15625 -23.96875 C 48.800781 -19.738281 48.207031 -14.550781 47.375 -8.40625 C 49.925781 -16.144531 52.507812 -23.203125 55.125 -29.578125 C 57.738281 -35.960938 60.28125 -41.441406 62.75 -46.015625 C 65.21875 -50.597656 67.519531 -54.101562 69.65625 -56.53125 C 71.789062 -58.957031 73.648438 -60.085938 75.234375 -59.921875 C 77.203125 -59.710938 78.3125 -57.789062 78.5625 -54.15625 Z M 78.5625 -54.15625 "/></g></g></g></g></g></g></g></g></g></svg>